<?xml version="1.0" encoding="UTF-8"?>
<svg width="28px" height="28px" viewBox="0 0 28 28" version="1.1" xmlns="http://www.w3.org/2000/svg" xmlns:xlink="http://www.w3.org/1999/xlink">
    <!-- Generator: Sketch 52.5 (67469) - http://www.bohemiancoding.com/sketch -->
    <title>Shape</title>
    <desc>Created with Sketch.</desc>
    <g id="Page-1" stroke="none" stroke-width="1" fill="none" fill-rule="evenodd">
        <g id="1-Landing" transform="translate(-123.000000, -1524.000000)" fill="#000000" fill-rule="nonzero">
            <g id="Contact-Footer" transform="translate(0.000000, 1255.000000)">
                <g id="icons8-linkedin" transform="translate(123.000000, 269.000000)">
                    <path d="M22.75,0 L5.25,0 C2.35156277,0 0,2.35156277 0,5.25 L0,22.75 C0,25.6484372 2.35156277,28 5.25,28 L22.75,28 C25.6484372,28 28,25.6484372 28,22.75 L28,5.25 C28,2.35156277 25.6484372,0 22.75,0 Z M8.65745246,23.7680294 L4.30769231,23.7680294 L4.28245246,10.7439909 L8.63221154,10.7439909 L8.65745246,23.7680294 Z M6.37319738,9.04026415 L6.34795646,9.04026415 C4.926082,9.04026415 4.00901415,8.06009615 4.00901415,6.84014477 C4.00901415,5.59074492 4.95552938,4.64423077 6.40264477,4.64423077 C7.84976015,4.64423077 8.73737954,5.59074492 8.76682692,6.84014477 C8.76682692,8.06009615 7.84555262,9.04026415 6.37319738,9.04026415 Z M23.738582,23.7680294 L19.3509615,23.7680294 L19.3509615,16.6923077 C19.3509615,14.980168 18.8966346,13.8149038 17.3653846,13.8149038 C16.195914,13.8149038 15.5649038,14.6015628 15.2620192,15.3629808 C15.1484372,15.636418 15.1189909,16.0108178 15.1189909,16.3936295 L15.1189909,23.7680294 L10.7103371,23.7680294 L10.6850962,10.7439909 L15.09375,10.7439909 L15.1189909,12.582332 C15.6826923,11.7115385 16.6207935,10.4789666 18.8671872,10.4789666 C21.6520435,10.4789666 23.7343755,12.2962743 23.7343755,16.2043269 L23.7343755,23.7680294 L23.738582,23.7680294 Z" id="Shape"></path>
                </g>
            </g>
        </g>
    </g>
</svg>