<?xml version="1.0" encoding="UTF-8"?>
<svg width="91px" height="116px" viewBox="0 0 91 116" version="1.1" xmlns="http://www.w3.org/2000/svg" xmlns:xlink="http://www.w3.org/1999/xlink">
    <!-- Generator: Sketch 55.2 (78181) - https://sketchapp.com -->
    <title>TL LITE</title>
    <desc>Created with Sketch.</desc>
    <defs>
        <linearGradient x1="22.1517219%" y1="1.56521102%" x2="68.4420798%" y2="108.473906%" id="linearGradient-1">
            <stop stop-color="#FFC4E0" offset="0%"></stop>
            <stop stop-color="#FF6BB3" offset="100%"></stop>
        </linearGradient>
        <linearGradient x1="61.2231526%" y1="75.1819561%" x2="35.8054677%" y2="26.5886246%" id="linearGradient-2">
            <stop stop-color="#FFE4F1" offset="0%"></stop>
            <stop stop-color="#FFFFFF" offset="100%"></stop>
        </linearGradient>
    </defs>
    <g id="Page-1" stroke="none" stroke-width="1" fill="none" fill-rule="evenodd">
        <g id="TL-LITE" transform="translate(-0.000200, 0.000200)">
            <path d="M59.375,0 L81.25,0 L81.25,21.874 L62.5,34.375 L62.5,71.875 L40.625,84.375 L40.625,34.375 L59.375,21.874 L59.375,0 Z M0.0002,62.4996 L21.8752,46.8746 L21.8752,62.4996 L0.0002,62.4996 Z M68.7503,62.4996 L90.6243,62.4996 L90.6243,84.3746 L43.7503,115.6246 L21.8753,115.6246 L68.7503,84.3746 L68.7503,62.4996 Z" id="Combined-Shape" fill="url(#linearGradient-1)"></path>
            <polygon id="Fill-4" fill="url(#linearGradient-2)" points="59.375 0 0 40.625 0 62.5 21.876 46.875 21.876 115.625 68.75 84.375 68.75 62.5 40.625 81.25 40.625 34.375 59.375 21.874"></polygon>
        </g>
    </g>
</svg>