<?xml version="1.0" encoding="UTF-8"?>
<svg width="345px" height="173px" viewBox="0 0 345 173" version="1.1" xmlns="http://www.w3.org/2000/svg" xmlns:xlink="http://www.w3.org/1999/xlink">
    <!-- Generator: Sketch 55.2 (78181) - https://sketchapp.com -->
    <title>Group 2</title>
    <desc>Created with Sketch.</desc>
    <g id="Branding" stroke="none" stroke-width="1" fill="none" fill-rule="evenodd">
        <g id="Shapes" transform="translate(-87.000000, -117.000000)">
            <g id="Group-2" transform="translate(87.000000, 117.568624)">
                <g id="Triangle" transform="translate(217.000000, 52.431376)">
                    <polygon fill="#F0C808" transform="translate(70.500000, 71.500000) rotate(-95.000000) translate(-70.500000, -71.500000) " points="70.5 19 123 124 18 124"></polygon>
                    <polygon stroke="#000000" stroke-width="3" transform="translate(55.000000, 55.000000) rotate(-95.000000) translate(-55.000000, -55.000000) " points="55 5 105 105 5 105"></polygon>
                </g>
                <g id="Circle-strike" transform="translate(100.000000, 0.000000)">
                    <circle id="Oval" fill="#FF007B" cx="23.5" cy="45.9313757" r="21.5"></circle>
                    <g id="Group" transform="translate(43.276401, 39.500000) rotate(18.000000) translate(-43.276401, -39.500000) translate(8.276401, 10.000000)" stroke="#000000" stroke-linecap="square" stroke-width="3">
                        <path d="M0.113718065,1.72323977 L35.6716561,21.1299287" id="Line"></path>
                        <path d="M36.8115527,21.8690308 L28.9398306,32.7776106" id="Line-2"></path>
                        <path d="M26.6544709,36.6745556 L67.8856433,55.3286012" id="Line-3" transform="translate(46.980096, 45.856909) rotate(10.000000) translate(-46.980096, -45.856909) "></path>
                    </g>
                </g>
                <g id="Dots" transform="translate(0.000000, 88.431376)">
                    <circle id="Oval" fill="#FE7A5C" cx="1.5" cy="1.5" r="1.5"></circle>
                    <circle id="Oval" fill="#FE7A5C" cx="6.5" cy="1.5" r="1.5"></circle>
                    <circle id="Oval" fill="#FE7A5C" cx="16.5" cy="1.5" r="1.5"></circle>
                    <circle id="Oval" fill="#FE7A5C" cx="11.5" cy="1.5" r="1.5"></circle>
                    <circle id="Oval" fill="#FE7A5C" cx="21.5" cy="1.5" r="1.5"></circle>
                    <circle id="Oval" fill="#FE7A5C" cx="26.5" cy="1.5" r="1.5"></circle>
                    <circle id="Oval" fill="#FE7A5C" cx="1.5" cy="6.5" r="1.5"></circle>
                    <circle id="Oval" fill="#FE7A5C" cx="6.5" cy="6.5" r="1.5"></circle>
                    <circle id="Oval" fill="#FE7A5C" cx="11.5" cy="6.5" r="1.5"></circle>
                    <circle id="Oval" fill="#FE7A5C" cx="16.5" cy="6.5" r="1.5"></circle>
                    <circle id="Oval" fill="#FE7A5C" cx="21.5" cy="6.5" r="1.5"></circle>
                    <circle id="Oval" fill="#FE7A5C" cx="26.5" cy="6.5" r="1.5"></circle>
                    <circle id="Oval" fill="#FE7A5C" cx="1.5" cy="11.5" r="1.5"></circle>
                    <circle id="Oval" fill="#FE7A5C" cx="16.5" cy="11.5" r="1.5"></circle>
                    <circle id="Oval" fill="#FE7A5C" cx="21.5" cy="11.5" r="1.5"></circle>
                    <circle id="Oval" fill="#FE7A5C" cx="26.5" cy="11.5" r="1.5"></circle>
                    <circle id="Oval" fill="#FE7A5C" cx="6.5" cy="11.5" r="1.5"></circle>
                    <circle id="Oval" fill="#FE7A5C" cx="11.5" cy="11.5" r="1.5"></circle>
                    <circle id="Oval" fill="#FE7A5C" cx="1.5" cy="16.5" r="1.5"></circle>
                    <circle id="Oval" fill="#FE7A5C" cx="6.5" cy="16.5" r="1.5"></circle>
                    <circle id="Oval" fill="#FE7A5C" cx="16.5" cy="16.5" r="1.5"></circle>
                    <circle id="Oval" fill="#FE7A5C" cx="11.5" cy="16.5" r="1.5"></circle>
                    <circle id="Oval" fill="#FE7A5C" cx="21.5" cy="16.5" r="1.5"></circle>
                    <circle id="Oval" fill="#FE7A5C" cx="26.5" cy="16.5" r="1.5"></circle>
                    <circle id="Oval" fill="#FE7A5C" cx="1.5" cy="21.5" r="1.5"></circle>
                    <circle id="Oval" fill="#FE7A5C" cx="6.5" cy="21.5" r="1.5"></circle>
                    <circle id="Oval" fill="#FE7A5C" cx="11.5" cy="21.5" r="1.5"></circle>
                    <circle id="Oval" fill="#FE7A5C" cx="16.5" cy="21.5" r="1.5"></circle>
                    <circle id="Oval" fill="#FE7A5C" cx="21.5" cy="21.5" r="1.5"></circle>
                    <circle id="Oval" fill="#FE7A5C" cx="26.5" cy="21.5" r="1.5"></circle>
                    <circle id="Oval" fill="#FE7A5C" cx="1.5" cy="26.5" r="1.5"></circle>
                    <circle id="Oval" fill="#FE7A5C" cx="16.5" cy="26.5" r="1.5"></circle>
                    <circle id="Oval" fill="#FE7A5C" cx="21.5" cy="26.5" r="1.5"></circle>
                    <circle id="Oval" fill="#FE7A5C" cx="26.5" cy="26.5" r="1.5"></circle>
                    <circle id="Oval" fill="#FE7A5C" cx="6.5" cy="26.5" r="1.5"></circle>
                    <circle id="Oval" fill="#FE7A5C" cx="11.5" cy="26.5" r="1.5"></circle>
                    <circle id="Oval" fill="#FE7A5C" cx="31.5" cy="1.5" r="1.5"></circle>
                    <circle id="Oval" fill="#FE7A5C" cx="36.5" cy="1.5" r="1.5"></circle>
                    <circle id="Oval" fill="#FE7A5C" cx="46.5" cy="1.5" r="1.5"></circle>
                    <circle id="Oval" fill="#FE7A5C" cx="41.5" cy="1.5" r="1.5"></circle>
                    <circle id="Oval" fill="#FE7A5C" cx="51.5" cy="1.5" r="1.5"></circle>
                    <circle id="Oval" fill="#FE7A5C" cx="56.5" cy="1.5" r="1.5"></circle>
                    <circle id="Oval" fill="#FE7A5C" cx="31.5" cy="6.5" r="1.5"></circle>
                    <circle id="Oval" fill="#FE7A5C" cx="36.5" cy="6.5" r="1.5"></circle>
                    <circle id="Oval" fill="#FE7A5C" cx="41.5" cy="6.5" r="1.5"></circle>
                    <circle id="Oval" fill="#FE7A5C" cx="46.5" cy="6.5" r="1.5"></circle>
                    <circle id="Oval" fill="#FE7A5C" cx="51.5" cy="6.5" r="1.5"></circle>
                    <circle id="Oval" fill="#FE7A5C" cx="56.5" cy="6.5" r="1.5"></circle>
                    <circle id="Oval" fill="#FE7A5C" cx="31.5" cy="11.5" r="1.5"></circle>
                    <circle id="Oval" fill="#FE7A5C" cx="46.5" cy="11.5" r="1.5"></circle>
                    <circle id="Oval" fill="#FE7A5C" cx="51.5" cy="11.5" r="1.5"></circle>
                    <circle id="Oval" fill="#FE7A5C" cx="56.5" cy="11.5" r="1.5"></circle>
                    <circle id="Oval" fill="#FE7A5C" cx="36.5" cy="11.5" r="1.5"></circle>
                    <circle id="Oval" fill="#FE7A5C" cx="41.5" cy="11.5" r="1.5"></circle>
                    <circle id="Oval" fill="#FE7A5C" cx="31.5" cy="16.5" r="1.5"></circle>
                    <circle id="Oval" fill="#FE7A5C" cx="36.5" cy="16.5" r="1.5"></circle>
                    <circle id="Oval" fill="#FE7A5C" cx="46.5" cy="16.5" r="1.5"></circle>
                    <circle id="Oval" fill="#FE7A5C" cx="41.5" cy="16.5" r="1.5"></circle>
                    <circle id="Oval" fill="#FE7A5C" cx="51.5" cy="16.5" r="1.5"></circle>
                    <circle id="Oval" fill="#FE7A5C" cx="56.5" cy="16.5" r="1.5"></circle>
                    <circle id="Oval" fill="#FE7A5C" cx="31.5" cy="21.5" r="1.5"></circle>
                    <circle id="Oval" fill="#FE7A5C" cx="36.5" cy="21.5" r="1.5"></circle>
                    <circle id="Oval" fill="#FE7A5C" cx="41.5" cy="21.5" r="1.5"></circle>
                    <circle id="Oval" fill="#FE7A5C" cx="46.5" cy="21.5" r="1.5"></circle>
                    <circle id="Oval" fill="#FE7A5C" cx="51.5" cy="21.5" r="1.5"></circle>
                    <circle id="Oval" fill="#FE7A5C" cx="56.5" cy="21.5" r="1.5"></circle>
                    <circle id="Oval" fill="#FE7A5C" cx="31.5" cy="26.5" r="1.5"></circle>
                    <circle id="Oval" fill="#FE7A5C" cx="46.5" cy="26.5" r="1.5"></circle>
                    <circle id="Oval" fill="#FE7A5C" cx="51.5" cy="26.5" r="1.5"></circle>
                    <circle id="Oval" fill="#FE7A5C" cx="56.5" cy="26.5" r="1.5"></circle>
                    <circle id="Oval" fill="#FE7A5C" cx="36.5" cy="26.5" r="1.5"></circle>
                    <circle id="Oval" fill="#FE7A5C" cx="41.5" cy="26.5" r="1.5"></circle>
                    <circle id="Oval" fill="#FE7A5C" cx="1.5" cy="31.5" r="1.5"></circle>
                    <circle id="Oval" fill="#FE7A5C" cx="6.5" cy="31.5" r="1.5"></circle>
                    <circle id="Oval" fill="#FE7A5C" cx="16.5" cy="31.5" r="1.5"></circle>
                    <circle id="Oval" fill="#FE7A5C" cx="11.5" cy="31.5" r="1.5"></circle>
                    <circle id="Oval" fill="#FE7A5C" cx="21.5" cy="31.5" r="1.5"></circle>
                    <circle id="Oval" fill="#FE7A5C" cx="26.5" cy="31.5" r="1.5"></circle>
                    <circle id="Oval" fill="#FE7A5C" cx="1.5" cy="36.5" r="1.5"></circle>
                    <circle id="Oval" fill="#FE7A5C" cx="6.5" cy="36.5" r="1.5"></circle>
                    <circle id="Oval" fill="#FE7A5C" cx="11.5" cy="36.5" r="1.5"></circle>
                    <circle id="Oval" fill="#FE7A5C" cx="16.5" cy="36.5" r="1.5"></circle>
                    <circle id="Oval" fill="#FE7A5C" cx="21.5" cy="36.5" r="1.5"></circle>
                    <circle id="Oval" fill="#FE7A5C" cx="26.5" cy="36.5" r="1.5"></circle>
                    <circle id="Oval" fill="#FE7A5C" cx="1.5" cy="41.5" r="1.5"></circle>
                    <circle id="Oval" fill="#FE7A5C" cx="16.5" cy="41.5" r="1.5"></circle>
                    <circle id="Oval" fill="#FE7A5C" cx="21.5" cy="41.5" r="1.5"></circle>
                    <circle id="Oval" fill="#FE7A5C" cx="26.5" cy="41.5" r="1.5"></circle>
                    <circle id="Oval" fill="#FE7A5C" cx="6.5" cy="41.5" r="1.5"></circle>
                    <circle id="Oval" fill="#FE7A5C" cx="11.5" cy="41.5" r="1.5"></circle>
                    <circle id="Oval" fill="#FE7A5C" cx="1.5" cy="46.5" r="1.5"></circle>
                    <circle id="Oval" fill="#FE7A5C" cx="6.5" cy="46.5" r="1.5"></circle>
                    <circle id="Oval" fill="#FE7A5C" cx="16.5" cy="46.5" r="1.5"></circle>
                    <circle id="Oval" fill="#FE7A5C" cx="11.5" cy="46.5" r="1.5"></circle>
                    <circle id="Oval" fill="#FE7A5C" cx="21.5" cy="46.5" r="1.5"></circle>
                    <circle id="Oval" fill="#FE7A5C" cx="26.5" cy="46.5" r="1.5"></circle>
                    <circle id="Oval" fill="#FE7A5C" cx="1.5" cy="51.5" r="1.5"></circle>
                    <circle id="Oval" fill="#FE7A5C" cx="6.5" cy="51.5" r="1.5"></circle>
                    <circle id="Oval" fill="#FE7A5C" cx="11.5" cy="51.5" r="1.5"></circle>
                    <circle id="Oval" fill="#FE7A5C" cx="16.5" cy="51.5" r="1.5"></circle>
                    <circle id="Oval" fill="#FE7A5C" cx="21.5" cy="51.5" r="1.5"></circle>
                    <circle id="Oval" fill="#FE7A5C" cx="26.5" cy="51.5" r="1.5"></circle>
                    <circle id="Oval" fill="#FE7A5C" cx="1.5" cy="56.5" r="1.5"></circle>
                    <circle id="Oval" fill="#FE7A5C" cx="16.5" cy="56.5" r="1.5"></circle>
                    <circle id="Oval" fill="#FE7A5C" cx="21.5" cy="56.5" r="1.5"></circle>
                    <circle id="Oval" fill="#FE7A5C" cx="26.5" cy="56.5" r="1.5"></circle>
                    <circle id="Oval" fill="#FE7A5C" cx="6.5" cy="56.5" r="1.5"></circle>
                    <circle id="Oval" fill="#FE7A5C" cx="11.5" cy="56.5" r="1.5"></circle>
                    <circle id="Oval" fill="#FE7A5C" cx="31.5" cy="31.5" r="1.5"></circle>
                    <circle id="Oval" fill="#FE7A5C" cx="36.5" cy="31.5" r="1.5"></circle>
                    <circle id="Oval" fill="#FE7A5C" cx="46.5" cy="31.5" r="1.5"></circle>
                    <circle id="Oval" fill="#FE7A5C" cx="41.5" cy="31.5" r="1.5"></circle>
                    <circle id="Oval" fill="#FE7A5C" cx="51.5" cy="31.5" r="1.5"></circle>
                    <circle id="Oval" fill="#FE7A5C" cx="56.5" cy="31.5" r="1.5"></circle>
                    <circle id="Oval" fill="#FE7A5C" cx="31.5" cy="36.5" r="1.5"></circle>
                    <circle id="Oval" fill="#FE7A5C" cx="36.5" cy="36.5" r="1.5"></circle>
                    <circle id="Oval" fill="#FE7A5C" cx="41.5" cy="36.5" r="1.5"></circle>
                    <circle id="Oval" fill="#FE7A5C" cx="46.5" cy="36.5" r="1.5"></circle>
                    <circle id="Oval" fill="#FE7A5C" cx="51.5" cy="36.5" r="1.5"></circle>
                    <circle id="Oval" fill="#FE7A5C" cx="56.5" cy="36.5" r="1.5"></circle>
                    <circle id="Oval" fill="#FE7A5C" cx="31.5" cy="41.5" r="1.5"></circle>
                    <circle id="Oval" fill="#FE7A5C" cx="46.5" cy="41.5" r="1.5"></circle>
                    <circle id="Oval" fill="#FE7A5C" cx="51.5" cy="41.5" r="1.5"></circle>
                    <circle id="Oval" fill="#FE7A5C" cx="56.5" cy="41.5" r="1.5"></circle>
                    <circle id="Oval" fill="#FE7A5C" cx="36.5" cy="41.5" r="1.5"></circle>
                    <circle id="Oval" fill="#FE7A5C" cx="41.5" cy="41.5" r="1.5"></circle>
                    <circle id="Oval" fill="#FE7A5C" cx="31.5" cy="46.5" r="1.5"></circle>
                    <circle id="Oval" fill="#FE7A5C" cx="36.5" cy="46.5" r="1.5"></circle>
                    <circle id="Oval" fill="#FE7A5C" cx="46.5" cy="46.5" r="1.5"></circle>
                    <circle id="Oval" fill="#FE7A5C" cx="41.5" cy="46.5" r="1.5"></circle>
                    <circle id="Oval" fill="#FE7A5C" cx="51.5" cy="46.5" r="1.5"></circle>
                    <circle id="Oval" fill="#FE7A5C" cx="56.5" cy="46.5" r="1.5"></circle>
                    <circle id="Oval" fill="#FE7A5C" cx="31.5" cy="51.5" r="1.5"></circle>
                    <circle id="Oval" fill="#FE7A5C" cx="36.5" cy="51.5" r="1.5"></circle>
                    <circle id="Oval" fill="#FE7A5C" cx="41.5" cy="51.5" r="1.5"></circle>
                    <circle id="Oval" fill="#FE7A5C" cx="46.5" cy="51.5" r="1.5"></circle>
                    <circle id="Oval" fill="#FE7A5C" cx="51.5" cy="51.5" r="1.5"></circle>
                    <circle id="Oval" fill="#FE7A5C" cx="56.5" cy="51.5" r="1.5"></circle>
                    <circle id="Oval" fill="#FE7A5C" cx="31.5" cy="56.5" r="1.5"></circle>
                    <circle id="Oval" fill="#FE7A5C" cx="46.5" cy="56.5" r="1.5"></circle>
                    <circle id="Oval" fill="#FE7A5C" cx="51.5" cy="56.5" r="1.5"></circle>
                    <circle id="Oval" fill="#FE7A5C" cx="56.5" cy="56.5" r="1.5"></circle>
                    <circle id="Oval" fill="#FE7A5C" cx="36.5" cy="56.5" r="1.5"></circle>
                    <circle id="Oval" fill="#FE7A5C" cx="41.5" cy="56.5" r="1.5"></circle>
                    <circle id="Oval" fill="#FE7A5C" cx="61.5" cy="1.5" r="1.5"></circle>
                    <circle id="Oval" fill="#FE7A5C" cx="66.5" cy="1.5" r="1.5"></circle>
                    <circle id="Oval" fill="#FE7A5C" cx="76.5" cy="1.5" r="1.5"></circle>
                    <circle id="Oval" fill="#FE7A5C" cx="71.5" cy="1.5" r="1.5"></circle>
                    <circle id="Oval" fill="#FE7A5C" cx="81.5" cy="1.5" r="1.5"></circle>
                    <circle id="Oval" fill="#FE7A5C" cx="86.5" cy="1.5" r="1.5"></circle>
                    <circle id="Oval" fill="#FE7A5C" cx="61.5" cy="6.5" r="1.5"></circle>
                    <circle id="Oval" fill="#FE7A5C" cx="66.5" cy="6.5" r="1.5"></circle>
                    <circle id="Oval" fill="#FE7A5C" cx="71.5" cy="6.5" r="1.5"></circle>
                    <circle id="Oval" fill="#FE7A5C" cx="76.5" cy="6.5" r="1.5"></circle>
                    <circle id="Oval" fill="#FE7A5C" cx="81.5" cy="6.5" r="1.5"></circle>
                    <circle id="Oval" fill="#FE7A5C" cx="86.5" cy="6.5" r="1.5"></circle>
                    <circle id="Oval" fill="#FE7A5C" cx="61.5" cy="11.5" r="1.5"></circle>
                    <circle id="Oval" fill="#FE7A5C" cx="76.5" cy="11.5" r="1.5"></circle>
                    <circle id="Oval" fill="#FE7A5C" cx="81.5" cy="11.5" r="1.5"></circle>
                    <circle id="Oval" fill="#FE7A5C" cx="86.5" cy="11.5" r="1.5"></circle>
                    <circle id="Oval" fill="#FE7A5C" cx="66.5" cy="11.5" r="1.5"></circle>
                    <circle id="Oval" fill="#FE7A5C" cx="71.5" cy="11.5" r="1.5"></circle>
                    <circle id="Oval" fill="#FE7A5C" cx="61.5" cy="16.5" r="1.5"></circle>
                    <circle id="Oval" fill="#FE7A5C" cx="66.5" cy="16.5" r="1.5"></circle>
                    <circle id="Oval" fill="#FE7A5C" cx="76.5" cy="16.5" r="1.5"></circle>
                    <circle id="Oval" fill="#FE7A5C" cx="71.5" cy="16.5" r="1.5"></circle>
                    <circle id="Oval" fill="#FE7A5C" cx="81.5" cy="16.5" r="1.5"></circle>
                    <circle id="Oval" fill="#FE7A5C" cx="86.5" cy="16.5" r="1.5"></circle>
                    <circle id="Oval" fill="#FE7A5C" cx="61.5" cy="21.5" r="1.5"></circle>
                    <circle id="Oval" fill="#FE7A5C" cx="66.5" cy="21.5" r="1.5"></circle>
                    <circle id="Oval" fill="#FE7A5C" cx="71.5" cy="21.5" r="1.5"></circle>
                    <circle id="Oval" fill="#FE7A5C" cx="76.5" cy="21.5" r="1.5"></circle>
                    <circle id="Oval" fill="#FE7A5C" cx="81.5" cy="21.5" r="1.5"></circle>
                    <circle id="Oval" fill="#FE7A5C" cx="86.5" cy="21.5" r="1.5"></circle>
                    <circle id="Oval" fill="#FE7A5C" cx="61.5" cy="26.5" r="1.5"></circle>
                    <circle id="Oval" fill="#FE7A5C" cx="76.5" cy="26.5" r="1.5"></circle>
                    <circle id="Oval" fill="#FE7A5C" cx="81.5" cy="26.5" r="1.5"></circle>
                    <circle id="Oval" fill="#FE7A5C" cx="86.5" cy="26.5" r="1.5"></circle>
                    <circle id="Oval" fill="#FE7A5C" cx="66.5" cy="26.5" r="1.5"></circle>
                    <circle id="Oval" fill="#FE7A5C" cx="71.5" cy="26.5" r="1.5"></circle>
                    <circle id="Oval" fill="#FE7A5C" cx="61.5" cy="31.5" r="1.5"></circle>
                    <circle id="Oval" fill="#FE7A5C" cx="66.5" cy="31.5" r="1.5"></circle>
                    <circle id="Oval" fill="#FE7A5C" cx="76.5" cy="31.5" r="1.5"></circle>
                    <circle id="Oval" fill="#FE7A5C" cx="71.5" cy="31.5" r="1.5"></circle>
                    <circle id="Oval" fill="#FE7A5C" cx="81.5" cy="31.5" r="1.5"></circle>
                    <circle id="Oval" fill="#FE7A5C" cx="86.5" cy="31.5" r="1.5"></circle>
                    <circle id="Oval" fill="#FE7A5C" cx="61.5" cy="36.5" r="1.5"></circle>
                    <circle id="Oval" fill="#FE7A5C" cx="66.5" cy="36.5" r="1.5"></circle>
                    <circle id="Oval" fill="#FE7A5C" cx="71.5" cy="36.5" r="1.5"></circle>
                    <circle id="Oval" fill="#FE7A5C" cx="76.5" cy="36.5" r="1.5"></circle>
                    <circle id="Oval" fill="#FE7A5C" cx="81.5" cy="36.5" r="1.5"></circle>
                    <circle id="Oval" fill="#FE7A5C" cx="86.5" cy="36.5" r="1.5"></circle>
                    <circle id="Oval" fill="#FE7A5C" cx="61.5" cy="41.5" r="1.5"></circle>
                    <circle id="Oval" fill="#FE7A5C" cx="76.5" cy="41.5" r="1.5"></circle>
                    <circle id="Oval" fill="#FE7A5C" cx="81.5" cy="41.5" r="1.5"></circle>
                    <circle id="Oval" fill="#FE7A5C" cx="86.5" cy="41.5" r="1.5"></circle>
                    <circle id="Oval" fill="#FE7A5C" cx="66.5" cy="41.5" r="1.5"></circle>
                    <circle id="Oval" fill="#FE7A5C" cx="71.5" cy="41.5" r="1.5"></circle>
                    <circle id="Oval" fill="#FE7A5C" cx="61.5" cy="46.5" r="1.5"></circle>
                    <circle id="Oval" fill="#FE7A5C" cx="66.5" cy="46.5" r="1.5"></circle>
                    <circle id="Oval" fill="#FE7A5C" cx="76.5" cy="46.5" r="1.5"></circle>
                    <circle id="Oval" fill="#FE7A5C" cx="71.5" cy="46.5" r="1.5"></circle>
                    <circle id="Oval" fill="#FE7A5C" cx="81.5" cy="46.5" r="1.5"></circle>
                    <circle id="Oval" fill="#FE7A5C" cx="86.5" cy="46.5" r="1.5"></circle>
                    <circle id="Oval" fill="#FE7A5C" cx="61.5" cy="51.5" r="1.5"></circle>
                    <circle id="Oval" fill="#FE7A5C" cx="66.5" cy="51.5" r="1.5"></circle>
                    <circle id="Oval" fill="#FE7A5C" cx="71.5" cy="51.5" r="1.5"></circle>
                    <circle id="Oval" fill="#FE7A5C" cx="76.5" cy="51.5" r="1.5"></circle>
                    <circle id="Oval" fill="#FE7A5C" cx="81.5" cy="51.5" r="1.5"></circle>
                    <circle id="Oval" fill="#FE7A5C" cx="86.5" cy="51.5" r="1.5"></circle>
                    <circle id="Oval" fill="#FE7A5C" cx="61.5" cy="56.5" r="1.5"></circle>
                    <circle id="Oval" fill="#FE7A5C" cx="76.5" cy="56.5" r="1.5"></circle>
                    <circle id="Oval" fill="#FE7A5C" cx="81.5" cy="56.5" r="1.5"></circle>
                    <circle id="Oval" fill="#FE7A5C" cx="86.5" cy="56.5" r="1.5"></circle>
                    <circle id="Oval" fill="#FE7A5C" cx="66.5" cy="56.5" r="1.5"></circle>
                    <circle id="Oval" fill="#FE7A5C" cx="71.5" cy="56.5" r="1.5"></circle>
                    <rect id="Rectangle" stroke="#000000" stroke-width="3" x="21.5" y="16.5" width="81" height="54"></rect>
                </g>
            </g>
        </g>
    </g>
</svg>