<?xml version="1.0" encoding="UTF-8"?>
<svg width="72px" height="72px" viewBox="0 0 72 72" version="1.1" xmlns="http://www.w3.org/2000/svg" xmlns:xlink="http://www.w3.org/1999/xlink">
    <!-- Generator: Sketch 55.2 (78181) - https://sketchapp.com -->
    <title>TL</title>
    <desc>Created with Sketch.</desc>
    <g id="Page-1" stroke="none" stroke-width="1" fill="none" fill-rule="evenodd">
        <g id="TL">
            <polygon id="Fill-1" fill="#CCFFFF" points="28.125 12.5 40.625 12.5 40.625 3.55271368e-15 28.125 3.55271368e-15"></polygon>
            <polygon id="Fill-2" fill="#6DB5B5" points="18.75 18.75 31.25 18.75 40.625 12.5 28.125 12.5"></polygon>
            <polygon id="Fill-3" fill="#6DB5B5" points="9.375 62.5 21.875 62.5 31.25 56.25 18.75 56.25"></polygon>
            <polygon id="Fill-4" fill="#6DB5B5" points="0 31.2498 9.375 31.2498 9.375 24.9998"></polygon>
            <polygon id="Fill-5" fill="#B7FFFF" points="18.75 56.25 31.25 56.25 31.25 18.75 18.75 18.75"></polygon>
            <polygon id="Fill-6" fill="#82D9D9" points="28.125 0 0 18.75 0 31.25 9.375 25 9.375 62.5 18.75 56.25 18.75 18.75 28.125 12.5"></polygon>
            <polygon id="Fill-7" fill="#B7FFFF" points="62.5 18.0469 50 18.0469 50 52.4219 62.5 46.1719"></polygon>
            <polygon id="Fill-8" fill="#82D9D9" points="40.6251 24.2973 40.6251 58.6723 40.6251 71.1723 59.3751 58.6723 59.3751 46.1713 50.0001 52.4223 50.0001 18.0463"></polygon>
            <polygon id="Fill-9" fill="#6DB5B5" points="59.3748 58.6719 40.6248 71.1719 53.1248 71.1719 71.8748 58.6719"></polygon>
            <polygon id="Fill-10" fill="#CCFFFF" points="59.375 58.672 71.875 58.672 71.875 46.172 59.375 46.172"></polygon>
        </g>
    </g>
</svg>